<?xml version="1.0" encoding="UTF-8"?>
<svg xmlns="http://www.w3.org/2000/svg" xmlns:xlink="http://www.w3.org/1999/xlink" viewBox="348.21 370.50 129.26 133.44" role="img">
  <defs>
    <style>
      .cls-2 {
        fill: url(#Gradiente_sem_nome_5);
      }
      .cls-11 {
        fill: url(#Gradiente_sem_nome_4);
      }
      .cls-13 {
        fill: #f8f3b3;
      }
      .cls-16 {
        fill: #cac8c9;
      }
      .cls-17 {
        fill: url(#Gradiente_sem_nome_3);
      }
      .cls-18 {
        fill: #afaca8;
      }
      .cls-20 {
        fill: #e4ac10;
      }
    </style>
    <linearGradient id="Gradiente_sem_nome_5" data-name="Gradiente sem nome 5" x1="373.99" y1="401.61" x2="384.15" y2="378.38" gradientUnits="userSpaceOnUse">
      <stop offset="0" stop-color="#ecb712"/>
      <stop offset="1" stop-color="#d3991a"/>
    </linearGradient>
    <linearGradient id="Gradiente_sem_nome_4" data-name="Gradiente sem nome 4" x1="412.75" y1="495.74" x2="413" y2="357.93" gradientUnits="userSpaceOnUse">
      <stop offset="0" stop-color="#f8c708"/>
      <stop offset="1" stop-color="#cc9316"/>
    </linearGradient>
    <linearGradient id="Gradiente_sem_nome_3" data-name="Gradiente sem nome 3" x1="451.34" y1="953.24" x2="450.51" y2="970.07" gradientTransform="translate(-517.9033 2463.0672) scale(2.0626 -2.0601)" gradientUnits="userSpaceOnUse">
      <stop offset="0" stop-color="#e2a900"/>
      <stop offset="1" stop-color="#fbce09"/>
    </linearGradient>
  </defs>
  <g>
    <path class="cls-13" d="M371.52,437.42c3.8.72,6.98.53,10.72-.24.07.48.22,1.88.35,2.27-2.1.49-9.58.22-11.86,0,.15-.56.55-1.45.78-2.02Z"/>
    <path class="cls-20" d="M385.93,410.31c-5.8-2.65-11.38-2.93-17.38-.92-7.76,2.61-12.62,10.47-9.73,18.42,1.81,4.95,7.74,8.56,12.69,9.61-.23.57-.64,1.46-.78,2.02,2.28.23,9.75.5,11.85,0-.13-.39-.29-1.79-.35-2.27,4.61-1.56,8.55-3.16,10.82-7.8,3.74-7.66.51-15.61-7.13-19.07ZM387.79,427.48c-1.86,3.19-4.78,4.32-8.14,5.17-6.16.54-13.38-.59-15.5-7.42-.66-2.07-.45-4.32.58-6.24,1.81-3.42,5.21-4.88,8.69-5.96,5.86-.81,13.4,1.45,15.23,7.69.66,2.28.35,4.72-.85,6.77Z"/>
    <path class="cls-16" d="M375.41,416.88h1.6s.19.28.19.28c-3.17,1.34-4.17,1.49-6.76,3.87-.45,1.4-.86,3.04-1.25,4.47l-.15.78-.47.28c-.53-.59-.55-.99-.67-1.74-.9-5.5,2.99-7.19,7.49-7.94Z"/>
    <path class="cls-20" d="M433.89,417.6c-4.13-9.34-17.64-11.7-26.29-7.45-7.18,3.52-11.97,10.57-8.21,18.59,2.43,5.06,6.65,6.92,11.74,8.61,3.64.59,7,.72,10.64-.13,9.09-1.88,16.29-10.2,12.12-19.63ZM419.61,432.6c-8.3.65-13.98-1.23-15.91-10,1.46-6,4.73-7.77,10.31-9.64,7.65-1,13.58,2.29,15.65,9.83-1.37,5.75-4.32,8.58-10.05,9.81Z"/>
    <path class="cls-16" d="M416.17,416.89c.57-.11,1.11-.01,1.69.04-.37,1.01-6.18.74-8.67,8.53l-.48.57-.46-.3c-.05-.22-.1-.44-.14-.66-1.01-5.68,3.4-7.42,8.05-8.18Z"/>
    <path class="cls-13" d="M411.13,437.36c3.64.59,7,.72,10.64-.13.34.77.45,1.51,1.2,1.65,3.77.72,7.77-.24,11.66.42-12.32.61-26.02.18-38.42,0,3.65-.71,10.21.38,14.05-.52.57-.13.68-.86.87-1.42Z"/>
    <path class="cls-20" d="M410.21,377.15c-4.24.63-8.24,2.09-10.92,5.63-1.79,2.31-2.59,5.25-2.21,8.15,1.26,8.99,10.8,12.13,18.75,11.66,20.04-3.87,17.47-26.7-5.62-25.44ZM415.45,398.12c-5.26.14-11.23-.67-12.94-6.67-.57-1.94-.32-4.02.68-5.77,1.77-3.05,5.12-4.26,8.33-5.09,13.49-.82,18.24,14.19,3.93,17.53Z"/>
    <path class="cls-18" d="M407.9,386.15l.23.32c-.4,2.13-.29,4.99-1.27,6.28-1.69-2.95-.83-4.1,1.04-6.6Z"/>
    <path class="cls-2" d="M376.48,377.15c-4.29.62-8.33,2.18-11.01,5.76-1.81,2.46-2.54,5.55-2.02,8.56,1.35,8.31,11.2,12.05,18.75,11.07,20.27-4.59,15.7-26.96-5.72-25.39ZM380.82,398.14c-5.28.13-11.48-1.2-12.79-7.3-.41-1.89-.02-3.86,1.08-5.44,2.04-2.98,5.55-4.08,8.91-4.76,6.49-.22,10.73,2.69,12.13,8.96-1.34,5.72-3.65,7.4-9.32,8.55Z"/>
    <path class="cls-16" d="M373.72,386.49c.7.85-.24,5.23-1.06,6.11-1.68-2.54-.8-4.1,1.06-6.11Z"/>
    <path class="cls-16" d="M439.12,419.14l.43.42c.84,3.5.98,11.73-1.09,14.86-.92,1.4-2.03,1.39-3.62,1.67l-.56-.39c0-1.43,2.68-4.09,3.35-6.21,1.11-3.55,1.28-6.69,1.5-10.35Z"/>
    <path class="cls-16" d="M396.09,398.73c.6.26.33.06.67.78-.32,1.8-2.99,4.24-4.44,5.29-2.47,1.8-2.59,2.08-5.49,1.7l-.69-.74c1.34-2.06,6.21-1.37,9.94-7.03Z"/>
    <path class="cls-18" d="M433.93,388.55c.74,7.13-3.31,14.98-10.61,16.82-.07-.45-.01-.44.08-.91,1.63-.93,5.55-3.4,6.57-4.9l.13-.19c2.98-4.4,2.08-6.65,3.72-10.55l.12-.27Z"/>
    <path class="cls-18" d="M362.11,397.25c1.85,1.9.98,10.1-.73,12.25-.99-.95.41-10.5.73-12.25Z"/>
    <path class="cls-18" d="M396.54,431.74c.87.51,1.26,1.38,1.1,2.34-.92.98-1.94,1.11-3.27,1.49l-.41.07c-.04-.65,1.94-2.97,2.58-3.9Z"/>
    <path class="cls-11" d="M473.61,398.42c-.54-9.1-2.05-18.53-2.69-27.8-2.42,0-8.35.48-9.9-.98l-.03-1.05c.3-3.12.25-8.66.31-12-1.42.04-3.15.27-4.58.43l.03,8.6c-.02,1.64-.06,3.3-.06,4.94-21.32.42-43.52.09-64.91.1l-22.76.03c-3.88,0-9.59.15-13.39-.23-1.95,24.11-6.09,49.89-7.42,73.74,2.36.11,4.72.27,7.07.49-.28,12.67-.43,25.35-.43,38.02-.01,5.05-.29,13.52.14,18.22,2.33-.03,4.99.01,7.28-.13-.1-13.42-.12-26.84-.08-40.25l67.73.03c10.38.02,23.26-.4,33.42.06.29,13.23.07,27.05.04,40.32h7.74l.02-56.62c2.1.04,4.24.11,6.33,0-.81-15.22-2.95-30.58-3.86-45.9ZM467.24,455.67c-3.02.29-9.83.11-13.12.1l-25.2-.02c-23.14,0-47.5.38-70.57-.09-.04-3.66-.16-7.62.03-11.25,26.24-.44,52.73.34,79,.04,9.73-.11,20.26-.45,29.9.07.13,3.55,0,7.57-.05,11.15ZM446.99,439.35c-3.64,0-8.82.15-12.36-.05-12.32.61-26.02.18-38.42,0-4.54,0-9.08.06-13.62.15-2.1.49-9.58.22-11.86,0-5.69-.12-11.37-.15-17.06-.09.08-4.56.79-9.41,1.3-13.98,1.88-16.91,3.44-33.71,4.74-50.67,30.87-.75,62.19.48,93.1-.14,4.45-.09,9.34-.13,13.77.03l5.29,64.74h-24.88Z"/>
    <path class="cls-17" d="M426.52,469.69c2.35-3.5,3.82-4.11,7.42-6.26.35,2.47-.22,9.5,1.36,10.55,4.07-.93,4.63-5.66,3.72-9.13,4.19,3.12,8.33,6.78,8.95,12.07.22,1.88.22,3.42.58,5.28l.07.33c2.81,3.72,9.02,8.34.37,12.82-3.35,1.74-6.49.58-9.8-.77-5.84,9.36-17.51,3.66-24.08-1.68-5.22,3.98-8.77,2.53-14.88,2.75-4.8.17-5.54.84-10.35-.58-4.19,4.41-10.05,4.31-15.55,2.51-4.07-4.25-2.06-6.63-.12-11.52l-.93-3.46c1.28-4.63,3-5.03,4.06-11.63,1.78,2.94,2.51,5.48,3.99,8.47.12.25.48.16.82.17,1.17-.86,1.65-2.31,2.27-3.68-.63-1.87-1.51-3.86-2.27-5.69,2.35-3.15,3.62-3.91,6.75-6.33,1.35,2.17.31,8.62,2.36,10.58,3.18-.61,2.94-6.34,2.71-8.93,7.61,5.28,9.14,8.11,8.97,17.09,5.25-5.24,4.03-5.63,2.63-12.44,2.01-3.72,3.49-4.53,6.98-6.62-.12,2.89-.16,7.25,3.04,8.71,2.7-.24,2.73-2.79,3.15-5.05,3.02,2.93,6.03,8.31,8.02,9.51l.4-.25c.08-.96-.54-5.33-.64-6.83Z"/>
  </g>
</svg>
